<svg xmlns="http://www.w3.org/2000/svg" viewBox="0 0 22.04 22.08">
  <path d="M20,15.44A4.57,4.57,0,0,1,15.4,20H6.64a4.55,4.55,0,0,1-4.55-4.55V6.65A4.55,4.55,0,0,1,6.64,2.09H15.4A4.57,4.57,0,0,1,20,6.65ZM22,6.65A6.65,6.65,0,0,0,15.4,0H6.64A6.65,6.65,0,0,0,0,6.65v8.79a6.65,6.65,0,0,0,6.64,6.65H15.4A6.65,6.65,0,0,0,22,15.44Zm-11,8a3.48,3.48,0,1,1,3.49-3.47A3.46,3.46,0,0,1,11,14.66Zm0-8.94a5.46,5.46,0,1,0,5.47,5.47A5.48,5.48,0,0,0,11,5.73Zm5.78-1.66a1.3,1.3,0,1,0,0,2.61,1.3,1.3,0,0,0,0-2.61Z" style="fill: #9ecdb7;fill-rule: evenodd"/>
</svg>