<svg xmlns="http://www.w3.org/2000/svg" viewBox="0 0 21.79 18.88">
  <path d="M18.61,0c-3-.08-5.07,1.61-6.13,5.13a4.2,4.2,0,0,1,1.6-.37q1.68,0,1.46,1.89a8.48,8.48,0,0,1-1.46,3.3Q12.71,12.09,12,12.09c-.57,0-1.12-1.09-1.6-3.32-.17-.66-.46-2.32-.89-5C9.13,1.29,8.1.12,6.41.29,5.7.35,4.61,1,3.18,2.24L0,5.07,1,6.39a7.55,7.55,0,0,1,1.69-1c.74,0,1.46,1.17,2.12,3.52.57,2.15,1.17,4.3,1.75,6.44.89,2.35,1.95,3.52,3.23,3.52,2,0,4.55-1.92,7.53-5.79,2.86-3.69,4.32-6.59,4.44-8.71C21.9,1.52,20.84.09,18.61,0Z" style="fill: #9ecdb7;fill-rule: evenodd"/>
</svg>