<svg width="1346" height="161" viewBox="0 0 1346 161" fill="none" xmlns="http://www.w3.org/2000/svg">
<path d="M1343.71 100.659C1342.27 96.6158 1340.12 92.8907 1337.35 89.6801C1334.6 86.5364 1331.37 83.8774 1327.8 81.8065C1324.02 79.6032 1320.07 77.7247 1316 76.1899C1311.68 74.5615 1307.27 73.1905 1302.8 72.0835C1298.21 70.9466 1293.61 69.8096 1288.97 68.6897C1275.16 65.4996 1265.94 62.8185 1261.31 60.6465C1257.23 58.8697 1253.6 56.1341 1250.7 52.6542C1248.17 49.2662 1246.86 45.0624 1247.01 40.776C1246.83 37.0833 1247.63 33.4106 1249.3 30.1479C1250.97 26.8853 1253.47 24.1546 1256.51 22.2461C1262.85 18.1057 1272.03 16.0355 1284.06 16.0355C1295.03 16.0355 1303.61 17.9021 1309.81 21.6352C1316 25.3684 1320.2 31.381 1322.4 39.6731L1342.48 36.0078C1338.86 22.9079 1332.52 13.643 1323.47 8.21294C1314.43 2.78293 1301.37 0.0622168 1284.29 0.0509043C1265.92 0.0509043 1251.8 3.67658 1241.93 10.9279C1232.06 18.1792 1227.13 28.502 1227.14 41.896C1227.04 47.2254 1228.01 52.5177 1229.98 57.4394C1231.84 61.9652 1234.63 66.0175 1238.14 69.3175C1242.49 73.1843 1247.41 76.2802 1252.72 78.4807C1261.5 82.0238 1270.56 84.7716 1279.8 86.6936C1286.62 88.3226 1292.85 89.8384 1298.48 91.2412C1303.49 92.4236 1308.36 94.1704 1313.01 96.4506C1316.73 98.2394 1319.98 100.948 1322.46 104.341C1324.84 107.998 1326.02 112.354 1325.83 116.762C1326 120.899 1325.09 125.007 1323.2 128.652C1321.31 132.296 1318.5 135.341 1315.08 137.464C1307.93 142.159 1297.77 144.506 1284.6 144.506C1271.86 144.506 1261.79 142.306 1254.37 137.905C1250.69 135.704 1247.5 132.724 1245 129.157C1242.5 125.591 1240.75 121.518 1239.86 117.204L1220.1 121.191C1225.93 147.674 1247.16 160.921 1283.78 160.932C1303.5 160.932 1318.8 156.973 1329.66 149.054C1340.53 141.135 1345.97 129.964 1345.99 115.541C1346.09 110.476 1345.31 105.435 1343.69 100.659H1343.71ZM1202.78 158.709L1130.2 70.2848L1194.27 2.40959H1170.22L1097.7 80.6867V2.40959H1077.29V158.794H1097.7V98.7753L1117.3 83.232L1177.55 158.709H1202.78ZM1006.23 69.1987C1000.38 74.4478 992.064 77.0723 981.299 77.0723H932.069V19.3784H980.449C991.618 19.3784 1000.18 21.7653 1006.13 26.5392C1012.09 31.3131 1015.06 38.2477 1015.05 47.3429C1015.05 56.7436 1012.11 64.0516 1006.23 69.2667V69.1987ZM1041.53 158.777L998.819 91.4109C1010.28 89.3408 1019.27 84.3462 1025.78 76.4275C1032.29 68.5087 1035.55 58.7403 1035.57 47.1223C1035.57 33.0722 1030.96 22.1047 1021.74 14.2199C1012.52 6.33503 999.461 2.37564 982.556 2.3417H911.675V158.726H932.069V93.7865H978.947L1018.04 158.709L1041.53 158.777ZM837.43 127.096C828.144 138.228 814.81 143.794 797.425 143.794C780.564 143.794 767.376 138.041 757.862 126.536C748.348 115.032 743.596 99.4768 743.607 79.8722C743.607 60.1205 748.304 44.7637 757.699 33.8019C767.093 22.84 780.406 17.3648 797.638 17.3761C814.739 17.3761 827.965 22.9305 837.316 34.0395C846.666 45.1484 851.347 60.4203 851.358 79.8552C851.358 100.218 846.715 115.959 837.43 127.079V127.096ZM863.261 37.1447C857.618 25.3989 848.611 15.7595 837.479 9.55344C826.223 3.24105 812.943 0.0792022 797.638 0.0678897C774.136 0.0678897 755.805 7.11558 742.644 21.211C729.483 35.3064 722.898 54.8602 722.887 79.8722C722.887 96.298 725.842 110.671 731.753 122.99C737.311 134.927 746.281 144.788 757.438 151.226C768.65 157.742 781.979 161 797.425 161C812.872 161 826.152 157.708 837.266 151.124C848.442 144.612 857.468 134.747 863.163 122.82C869.194 110.49 872.209 96.1509 872.209 79.8042C872.209 63.4576 869.232 49.2152 863.278 37.0768L863.261 37.1447ZM703.603 2.40959H682.376C663.588 72.4115 653.584 110.094 652.365 115.456C651.146 120.818 649.578 127.752 647.662 136.259L646.699 140.145C644.435 129.127 641.305 115.659 637.31 99.7426L611.12 2.40959H591.526C574.022 66.891 564.143 103.928 561.89 113.521C559.636 123.114 557.661 131.989 555.962 140.145C553.263 126.977 550.307 114.177 547.096 101.745L520.138 2.40959H498.911L543.226 158.794H567.588C585.745 90.4324 595.461 53.3612 596.734 47.5805C598.008 41.7998 599.575 34.6277 601.437 26.0641C604.703 42.1166 607.195 53.2481 608.915 59.4587L635.04 158.794H659.288L703.603 2.40959ZM452.8 112.52C448.64 121.628 441.922 129.212 433.533 134.274C424.652 139.432 414.607 142.033 404.436 141.808H370.93V19.3784H399.831C419.197 19.3784 433.99 24.469 444.212 34.6503C454.433 44.8316 459.538 59.6057 459.527 78.9728C459.527 91.8465 457.285 103.023 452.8 112.503V112.52ZM459.332 22.3309C445.442 9.05003 425.771 2.40959 400.321 2.40959H350.503V158.794H406.852C420.257 159.078 433.504 155.752 445.306 149.139C456.355 142.701 465.291 132.965 470.957 121.191C477.021 109.098 480.047 94.9574 480.036 78.7692C480.036 54.2775 473.113 35.3969 459.266 22.1273L459.332 22.3309ZM276.226 127.028C266.941 138.16 253.611 143.726 236.238 143.726C219.365 143.726 206.178 137.973 196.674 126.468C187.171 114.964 182.42 99.4089 182.42 79.8042C182.42 60.0526 187.117 44.6959 196.511 33.734C205.905 22.7722 219.218 17.2969 236.45 17.3082C253.551 17.3082 266.777 22.8626 276.128 33.9715C285.479 45.0804 290.159 60.3523 290.17 79.7873C290.17 100.15 285.522 115.891 276.226 127.011V127.028ZM302.074 37.0768C296.414 25.321 287.382 15.6805 276.226 9.4856C264.981 3.17321 251.701 0.0113125 236.385 0C212.872 0 194.584 7.0251 181.522 21.0753C168.459 35.1254 161.873 54.6792 161.765 79.7364C161.765 96.1622 164.72 110.535 170.631 122.854C176.147 134.805 185.084 144.691 196.217 151.158C207.418 157.674 220.748 160.932 236.205 160.932C251.663 160.932 264.943 157.64 276.046 151.056C287.222 144.544 296.247 134.68 301.943 122.752C307.952 110.467 310.956 96.1509 310.956 79.8042C310.956 63.4576 307.985 49.2152 302.041 37.0768H302.074ZM122.168 158.709V2.40959H101.774V68.5879H20.3941V2.40959H0V158.794H20.3941V86.2355H101.774V158.709H122.168Z" fill="black"/>
</svg>
